ISO-10303-21;
HEADER;
FILE_DESCRIPTION(('FreeCAD Model'),'2;1');
FILE_NAME('Open CASCADE Shape Model','2026-08-11T20:30:02',(''),(''),
  'Open CASCADE STEP processor 7.8','FreeCAD','Unknown');
FILE_SCHEMA(('AUTOMOTIVE_DESIGN { 1 0 10303 214 1 1 1 1 }'));
ENDSEC;
DATA;
#1 = APPLICATION_PROTOCOL_DEFINITION('international standard',
  'automotive_design',2000,#2);
#2 = APPLICATION_CONTEXT(
  'core data for automotive mechanical design processes');
#3 = SHAPE_DEFINITION_REPRESENTATION(#4,#10);
#4 = PRODUCT_DEFINITION_SHAPE('','',#5);
#5 = PRODUCT_DEFINITION('design','',#6,#9);
#6 = PRODUCT_DEFINITION_FORMATION('','',#7);
#7 = PRODUCT('Part','Part','',(#8));
#8 = PRODUCT_CONTEXT('',#2,'mechanical');
#9 = PRODUCT_DEFINITION_CONTEXT('part definition',#2,'design');
#10 = SHAPE_REPRESENTATION('',(#11,#15,#19,#23,#27,#31),#35);
#11 = AXIS2_PLACEMENT_3D('',#12,#13,#14);
#12 = CARTESIAN_POINT('',(0.,0.,0.));
#13 = DIRECTION('',(0.,0.,1.));
#14 = DIRECTION('',(1.,0.,-0.));
#15 = AXIS2_PLACEMENT_3D('',#16,#17,#18);
#16 = CARTESIAN_POINT('',(0.,0.,0.));
#17 = DIRECTION('',(0.,0.,1.));
#18 = DIRECTION('',(1.,0.,0.));
#19 = AXIS2_PLACEMENT_3D('',#20,#21,#22);
#20 = CARTESIAN_POINT('',(97.,353.5,24.5));
#21 = DIRECTION('',(0.,0.,1.));
#22 = DIRECTION('',(1.,0.,0.));
#23 = AXIS2_PLACEMENT_3D('',#24,#25,#26);
#24 = CARTESIAN_POINT('',(0.,457.,49.));
#25 = DIRECTION('',(0.,-1.224646799147E-16,-1.));
#26 = DIRECTION('',(1.,0.,0.));
#27 = AXIS2_PLACEMENT_3D('',#28,#29,#30);
#28 = CARTESIAN_POINT('',(-1.,0.,49.));
#29 = DIRECTION('',(3.587607780783E-16,0.,-1.));
#30 = DIRECTION('',(-1.,0.,-3.587607780783E-16));
#31 = AXIS2_PLACEMENT_3D('',#32,#33,#34);
#32 = CARTESIAN_POINT('',(0.,457.,49.));
#33 = DIRECTION('',(0.,-1.224646799147E-16,-1.));
#34 = DIRECTION('',(1.,0.,0.));
#35 = ( GEOMETRIC_REPRESENTATION_CONTEXT(3) 
GLOBAL_UNCERTAINTY_ASSIGNED_CONTEXT((#39)) GLOBAL_UNIT_ASSIGNED_CONTEXT(
(#36,#37,#38)) REPRESENTATION_CONTEXT('Context #1',
  '3D Context with UNIT and UNCERTAINTY') );
#36 = ( LENGTH_UNIT() NAMED_UNIT(*) SI_UNIT(.MILLI.,.METRE.) );
#37 = ( NAMED_UNIT(*) PLANE_ANGLE_UNIT() SI_UNIT($,.RADIAN.) );
#38 = ( NAMED_UNIT(*) SI_UNIT($,.STERADIAN.) SOLID_ANGLE_UNIT() );
#39 = UNCERTAINTY_MEASURE_WITH_UNIT(LENGTH_MEASURE(1.E-07),#36,
  'distance_accuracy_value','confusion accuracy');
#40 = PRODUCT_RELATED_PRODUCT_CATEGORY('part',$,(#7));
#41 = SHAPE_DEFINITION_REPRESENTATION(#42,#48);
#42 = PRODUCT_DEFINITION_SHAPE('','',#43);
#43 = PRODUCT_DEFINITION('design','',#44,#47);
#44 = PRODUCT_DEFINITION_FORMATION('','',#45);
#45 = PRODUCT('Body','Body','',(#46));
#46 = PRODUCT_CONTEXT('',#2,'mechanical');
#47 = PRODUCT_DEFINITION_CONTEXT('part definition',#2,'design');
#48 = ADVANCED_BREP_SHAPE_REPRESENTATION('',(#11,#49),#136);
#49 = MANIFOLD_SOLID_BREP('',#50);
#50 = CLOSED_SHELL('',(#51,#84,#104,#113));
#51 = ADVANCED_FACE('',(#52),#79,.T.);
#52 = FACE_BOUND('',#53,.T.);
#53 = EDGE_LOOP('',(#54,#64,#71,#72));
#54 = ORIENTED_EDGE('',*,*,#55,.T.);
#55 = EDGE_CURVE('',#56,#58,#60,.T.);
#56 = VERTEX_POINT('',#57);
#57 = CARTESIAN_POINT('',(72.5,54.,82.));
#58 = VERTEX_POINT('',#59);
#59 = CARTESIAN_POINT('',(72.5,424.,82.));
#60 = LINE('',#61,#62);
#61 = CARTESIAN_POINT('',(72.5,54.,82.));
#62 = VECTOR('',#63,1.);
#63 = DIRECTION('',(0.,1.,-2.22044604925E-16));
#64 = ORIENTED_EDGE('',*,*,#65,.T.);
#65 = EDGE_CURVE('',#58,#58,#66,.T.);
#66 = CIRCLE('',#67,72.5);
#67 = AXIS2_PLACEMENT_3D('',#68,#69,#70);
#68 = CARTESIAN_POINT('',(0.,424.,82.));
#69 = DIRECTION('',(0.,-1.,2.22044604925E-16));
#70 = DIRECTION('',(1.,0.,0.));
#71 = ORIENTED_EDGE('',*,*,#55,.F.);
#72 = ORIENTED_EDGE('',*,*,#73,.F.);
#73 = EDGE_CURVE('',#56,#56,#74,.T.);
#74 = CIRCLE('',#75,72.5);
#75 = AXIS2_PLACEMENT_3D('',#76,#77,#78);
#76 = CARTESIAN_POINT('',(0.,54.,82.));
#77 = DIRECTION('',(0.,-1.,2.22044604925E-16));
#78 = DIRECTION('',(1.,0.,0.));
#79 = CYLINDRICAL_SURFACE('',#80,72.5);
#80 = AXIS2_PLACEMENT_3D('',#81,#82,#83);
#81 = CARTESIAN_POINT('',(0.,54.,82.));
#82 = DIRECTION('',(0.,-1.,2.22044604925E-16));
#83 = DIRECTION('',(1.,0.,0.));
#84 = ADVANCED_FACE('',(#85,#88),#99,.F.);
#85 = FACE_BOUND('',#86,.F.);
#86 = EDGE_LOOP('',(#87));
#87 = ORIENTED_EDGE('',*,*,#73,.F.);
#88 = FACE_BOUND('',#89,.F.);
#89 = EDGE_LOOP('',(#90));
#90 = ORIENTED_EDGE('',*,*,#91,.F.);
#91 = EDGE_CURVE('',#92,#92,#94,.T.);
#92 = VERTEX_POINT('',#93);
#93 = CARTESIAN_POINT('',(0.,54.000000000024,137.00000000002));
#94 = CIRCLE('',#95,55.000000000029);
#95 = AXIS2_PLACEMENT_3D('',#96,#97,#98);
#96 = CARTESIAN_POINT('',(0.,54.000000000024,82.));
#97 = DIRECTION('',(0.,1.,0.));
#98 = DIRECTION('',(0.,0.,1.));
#99 = PLANE('',#100);
#100 = AXIS2_PLACEMENT_3D('',#101,#102,#103);
#101 = CARTESIAN_POINT('',(-4.828478261105E-15,54.,82.));
#102 = DIRECTION('',(0.,1.,-2.263349184893E-16));
#103 = DIRECTION('',(0.,2.263349184893E-16,1.));
#104 = ADVANCED_FACE('',(#105),#108,.T.);
#105 = FACE_BOUND('',#106,.F.);
#106 = EDGE_LOOP('',(#107));
#107 = ORIENTED_EDGE('',*,*,#65,.T.);
#108 = PLANE('',#109);
#109 = AXIS2_PLACEMENT_3D('',#110,#111,#112);
#110 = CARTESIAN_POINT('',(-4.828478261105E-15,424.,82.));
#111 = DIRECTION('',(0.,1.,-2.263349184893E-16));
#112 = DIRECTION('',(0.,2.263349184893E-16,1.));
#113 = ADVANCED_FACE('',(#114),#127,.F.);
#114 = FACE_BOUND('',#115,.F.);
#115 = EDGE_LOOP('',(#116,#125,#126));
#116 = ORIENTED_EDGE('',*,*,#117,.F.);
#117 = EDGE_CURVE('',#92,#118,#120,.T.);
#118 = VERTEX_POINT('',#119);
#119 = CARTESIAN_POINT('',(0.,-1.000000000002,82.));
#120 = CIRCLE('',#121,60.000000000007);
#121 = AXIS2_PLACEMENT_3D('',#122,#123,#124);
#122 = CARTESIAN_POINT('',(0.,58.807119958308,77.19288004172));
#123 = DIRECTION('',(1.,0.,0.));
#124 = DIRECTION('',(0.,1.,0.));
#125 = ORIENTED_EDGE('',*,*,#91,.T.);
#126 = ORIENTED_EDGE('',*,*,#117,.T.);
#127 = SURFACE_OF_REVOLUTION('',#128,#133);
#128 = CIRCLE('',#129,60.000000000007);
#129 = AXIS2_PLACEMENT_3D('',#130,#131,#132);
#130 = CARTESIAN_POINT('',(0.,58.807119958308,77.19288004172));
#131 = DIRECTION('',(1.,0.,0.));
#132 = DIRECTION('',(0.,1.,0.));
#133 = AXIS1_PLACEMENT('',#134,#135);
#134 = CARTESIAN_POINT('',(0.,54.,82.));
#135 = DIRECTION('',(0.,1.,0.));
#136 = ( GEOMETRIC_REPRESENTATION_CONTEXT(3) 
GLOBAL_UNCERTAINTY_ASSIGNED_CONTEXT((#140)) GLOBAL_UNIT_ASSIGNED_CONTEXT
((#137,#138,#139)) REPRESENTATION_CONTEXT('Context #1',
  '3D Context with UNIT and UNCERTAINTY') );
#137 = ( LENGTH_UNIT() NAMED_UNIT(*) SI_UNIT(.MILLI.,.METRE.) );
#138 = ( NAMED_UNIT(*) PLANE_ANGLE_UNIT() SI_UNIT($,.RADIAN.) );
#139 = ( NAMED_UNIT(*) SI_UNIT($,.STERADIAN.) SOLID_ANGLE_UNIT() );
#140 = UNCERTAINTY_MEASURE_WITH_UNIT(LENGTH_MEASURE(1.E-07),#137,
  'distance_accuracy_value','confusion accuracy');
#141 = CONTEXT_DEPENDENT_SHAPE_REPRESENTATION(#142,#144);
#142 = ( REPRESENTATION_RELATIONSHIP('','',#48,#10) 
REPRESENTATION_RELATIONSHIP_WITH_TRANSFORMATION(#143) 
SHAPE_REPRESENTATION_RELATIONSHIP() );
#143 = ITEM_DEFINED_TRANSFORMATION('','',#11,#15);
#144 = PRODUCT_DEFINITION_SHAPE('Placement','Placement of an item',#145
  );
#145 = NEXT_ASSEMBLY_USAGE_OCCURRENCE('1','Body','',#5,#43,$);
#146 = PRODUCT_RELATED_PRODUCT_CATEGORY('part',$,(#45));
#147 = SHAPE_DEFINITION_REPRESENTATION(#148,#154);
#148 = PRODUCT_DEFINITION_SHAPE('','',#149);
#149 = PRODUCT_DEFINITION('design','',#150,#153);
#150 = PRODUCT_DEFINITION_FORMATION('','',#151);
#151 = PRODUCT('Body001','Body001','',(#152));
#152 = PRODUCT_CONTEXT('',#2,'mechanical');
#153 = PRODUCT_DEFINITION_CONTEXT('part definition',#2,'design');
#154 = ADVANCED_BREP_SHAPE_REPRESENTATION('',(#11,#155),#350);
#155 = MANIFOLD_SOLID_BREP('',#156);
#156 = CLOSED_SHELL('',(#157,#197,#228,#259,#287,#304,#316,#341));
#157 = ADVANCED_FACE('',(#158),#192,.T.);
#158 = FACE_BOUND('',#159,.T.);
#159 = EDGE_LOOP('',(#160,#170,#178,#186));
#160 = ORIENTED_EDGE('',*,*,#161,.T.);
#161 = EDGE_CURVE('',#162,#164,#166,.T.);
#162 = VERTEX_POINT('',#163);
#163 = CARTESIAN_POINT('',(0.,-51.50000000003,23.));
#164 = VERTEX_POINT('',#165);
#165 = CARTESIAN_POINT('',(-45.,-51.50000000003,23.));
#166 = LINE('',#167,#168);
#167 = CARTESIAN_POINT('',(0.,-51.50000000003,23.));
#168 = VECTOR('',#169,1.);
#169 = DIRECTION('',(-1.,-0.,-0.));
#170 = ORIENTED_EDGE('',*,*,#171,.T.);
#171 = EDGE_CURVE('',#164,#172,#174,.T.);
#172 = VERTEX_POINT('',#173);
#173 = CARTESIAN_POINT('',(-45.,-51.50000000003,-23.));
#174 = LINE('',#175,#176);
#175 = CARTESIAN_POINT('',(-45.,-51.50000000003,23.));
#176 = VECTOR('',#177,1.);
#177 = DIRECTION('',(0.,0.,-1.));
#178 = ORIENTED_EDGE('',*,*,#179,.F.);
#179 = EDGE_CURVE('',#180,#172,#182,.T.);
#180 = VERTEX_POINT('',#181);
#181 = CARTESIAN_POINT('',(0.,-51.50000000003,-23.));
#182 = LINE('',#183,#184);
#183 = CARTESIAN_POINT('',(0.,-51.50000000003,-23.));
#184 = VECTOR('',#185,1.);
#185 = DIRECTION('',(-1.,-0.,-0.));
#186 = ORIENTED_EDGE('',*,*,#187,.F.);
#187 = EDGE_CURVE('',#162,#180,#188,.T.);
#188 = LINE('',#189,#190);
#189 = CARTESIAN_POINT('',(0.,-51.50000000003,23.));
#190 = VECTOR('',#191,1.);
#191 = DIRECTION('',(0.,0.,-1.));
#192 = PLANE('',#193);
#193 = AXIS2_PLACEMENT_3D('',#194,#195,#196);
#194 = CARTESIAN_POINT('',(0.,-51.50000000003,23.));
#195 = DIRECTION('',(0.,-1.,0.));
#196 = DIRECTION('',(0.,0.,-1.));
#197 = ADVANCED_FACE('',(#198),#223,.T.);
#198 = FACE_BOUND('',#199,.T.);
#199 = EDGE_LOOP('',(#200,#210,#216,#217));
#200 = ORIENTED_EDGE('',*,*,#201,.T.);
#201 = EDGE_CURVE('',#202,#204,#206,.T.);
#202 = VERTEX_POINT('',#203);
#203 = CARTESIAN_POINT('',(0.,24.499999999969,23.));
#204 = VERTEX_POINT('',#205);
#205 = CARTESIAN_POINT('',(-45.,24.499999999969,23.));
#206 = LINE('',#207,#208);
#207 = CARTESIAN_POINT('',(0.,24.499999999969,23.));
#208 = VECTOR('',#209,1.);
#209 = DIRECTION('',(-1.,-0.,-0.));
#210 = ORIENTED_EDGE('',*,*,#211,.T.);
#211 = EDGE_CURVE('',#204,#164,#212,.T.);
#212 = LINE('',#213,#214);
#213 = CARTESIAN_POINT('',(-45.,24.499999999969,23.));
#214 = VECTOR('',#215,1.);
#215 = DIRECTION('',(0.,-1.,0.));
#216 = ORIENTED_EDGE('',*,*,#161,.F.);
#217 = ORIENTED_EDGE('',*,*,#218,.F.);
#218 = EDGE_CURVE('',#202,#162,#219,.T.);
#219 = LINE('',#220,#221);
#220 = CARTESIAN_POINT('',(0.,24.499999999969,23.));
#221 = VECTOR('',#222,1.);
#222 = DIRECTION('',(0.,-1.,0.));
#223 = PLANE('',#224);
#224 = AXIS2_PLACEMENT_3D('',#225,#226,#227);
#225 = CARTESIAN_POINT('',(0.,24.499999999969,23.));
#226 = DIRECTION('',(0.,0.,1.));
#227 = DIRECTION('',(0.,-1.,0.));
#228 = ADVANCED_FACE('',(#229),#254,.T.);
#229 = FACE_BOUND('',#230,.T.);
#230 = EDGE_LOOP('',(#231,#232,#240,#248));
#231 = ORIENTED_EDGE('',*,*,#179,.T.);
#232 = ORIENTED_EDGE('',*,*,#233,.T.);
#233 = EDGE_CURVE('',#172,#234,#236,.T.);
#234 = VERTEX_POINT('',#235);
#235 = CARTESIAN_POINT('',(-45.,24.500000000031,-23.));
#236 = LINE('',#237,#238);
#237 = CARTESIAN_POINT('',(-45.,-51.50000000003,-23.));
#238 = VECTOR('',#239,1.);
#239 = DIRECTION('',(0.,1.,0.));
#240 = ORIENTED_EDGE('',*,*,#241,.F.);
#241 = EDGE_CURVE('',#242,#234,#244,.T.);
#242 = VERTEX_POINT('',#243);
#243 = CARTESIAN_POINT('',(0.,24.500000000031,-23.));
#244 = LINE('',#245,#246);
#245 = CARTESIAN_POINT('',(0.,24.500000000031,-23.));
#246 = VECTOR('',#247,1.);
#247 = DIRECTION('',(-1.,-0.,-0.));
#248 = ORIENTED_EDGE('',*,*,#249,.F.);
#249 = EDGE_CURVE('',#180,#242,#250,.T.);
#250 = LINE('',#251,#252);
#251 = CARTESIAN_POINT('',(0.,-51.50000000003,-23.));
#252 = VECTOR('',#253,1.);
#253 = DIRECTION('',(0.,1.,0.));
#254 = PLANE('',#255);
#255 = AXIS2_PLACEMENT_3D('',#256,#257,#258);
#256 = CARTESIAN_POINT('',(0.,-51.50000000003,-23.));
#257 = DIRECTION('',(0.,0.,-1.));
#258 = DIRECTION('',(0.,1.,0.));
#259 = ADVANCED_FACE('',(#260,#271),#282,.T.);
#260 = FACE_BOUND('',#261,.T.);
#261 = EDGE_LOOP('',(#262,#263,#264,#270));
#262 = ORIENTED_EDGE('',*,*,#187,.T.);
#263 = ORIENTED_EDGE('',*,*,#249,.T.);
#264 = ORIENTED_EDGE('',*,*,#265,.T.);
#265 = EDGE_CURVE('',#242,#202,#266,.T.);
#266 = LINE('',#267,#268);
#267 = CARTESIAN_POINT('',(0.,24.500000000031,-23.));
#268 = VECTOR('',#269,1.);
#269 = DIRECTION('',(0.,-1.353043281281E-12,1.));
#270 = ORIENTED_EDGE('',*,*,#218,.T.);
#271 = FACE_BOUND('',#272,.T.);
#272 = EDGE_LOOP('',(#273));
#273 = ORIENTED_EDGE('',*,*,#274,.F.);
#274 = EDGE_CURVE('',#275,#275,#277,.T.);
#275 = VERTEX_POINT('',#276);
#276 = CARTESIAN_POINT('',(0.,7.5,0.));
#277 = CIRCLE('',#278,7.5);
#278 = AXIS2_PLACEMENT_3D('',#279,#280,#281);
#279 = CARTESIAN_POINT('',(0.,0.,0.));
#280 = DIRECTION('',(1.,0.,0.));
#281 = DIRECTION('',(0.,1.,0.));
#282 = PLANE('',#283);
#283 = AXIS2_PLACEMENT_3D('',#284,#285,#286);
#284 = CARTESIAN_POINT('',(0.,-13.50000000001,-5.383351323915E-12));
#285 = DIRECTION('',(1.,0.,0.));
#286 = DIRECTION('',(0.,0.,1.));
#287 = ADVANCED_FACE('',(#288),#299,.F.);
#288 = FACE_BOUND('',#289,.F.);
#289 = EDGE_LOOP('',(#290,#291,#292,#298));
#290 = ORIENTED_EDGE('',*,*,#171,.T.);
#291 = ORIENTED_EDGE('',*,*,#233,.T.);
#292 = ORIENTED_EDGE('',*,*,#293,.T.);
#293 = EDGE_CURVE('',#234,#204,#294,.T.);
#294 = LINE('',#295,#296);
#295 = CARTESIAN_POINT('',(-45.,24.500000000031,-23.));
#296 = VECTOR('',#297,1.);
#297 = DIRECTION('',(0.,-1.353043281281E-12,1.));
#298 = ORIENTED_EDGE('',*,*,#211,.T.);
#299 = PLANE('',#300);
#300 = AXIS2_PLACEMENT_3D('',#301,#302,#303);
#301 = CARTESIAN_POINT('',(-45.,-13.50000000001,-5.383351323915E-12));
#302 = DIRECTION('',(1.,0.,0.));
#303 = DIRECTION('',(0.,0.,1.));
#304 = ADVANCED_FACE('',(#305),#311,.T.);
#305 = FACE_BOUND('',#306,.T.);
#306 = EDGE_LOOP('',(#307,#308,#309,#310));
#307 = ORIENTED_EDGE('',*,*,#241,.T.);
#308 = ORIENTED_EDGE('',*,*,#293,.T.);
#309 = ORIENTED_EDGE('',*,*,#201,.F.);
#310 = ORIENTED_EDGE('',*,*,#265,.F.);
#311 = PLANE('',#312);
#312 = AXIS2_PLACEMENT_3D('',#313,#314,#315);
#313 = CARTESIAN_POINT('',(0.,24.500000000031,-23.));
#314 = DIRECTION('',(0.,1.,1.353043281281E-12));
#315 = DIRECTION('',(0.,-1.353043281281E-12,1.));
#316 = ADVANCED_FACE('',(#317),#336,.T.);
#317 = FACE_BOUND('',#318,.F.);
#318 = EDGE_LOOP('',(#319,#327,#334,#335));
#319 = ORIENTED_EDGE('',*,*,#320,.T.);
#320 = EDGE_CURVE('',#275,#321,#323,.T.);
#321 = VERTEX_POINT('',#322);
#322 = CARTESIAN_POINT('',(19.,7.5,0.));
#323 = LINE('',#324,#325);
#324 = CARTESIAN_POINT('',(0.,7.5,0.));
#325 = VECTOR('',#326,1.);
#326 = DIRECTION('',(1.,0.,0.));
#327 = ORIENTED_EDGE('',*,*,#328,.T.);
#328 = EDGE_CURVE('',#321,#321,#329,.T.);
#329 = CIRCLE('',#330,7.5);
#330 = AXIS2_PLACEMENT_3D('',#331,#332,#333);
#331 = CARTESIAN_POINT('',(19.,0.,0.));
#332 = DIRECTION('',(1.,0.,0.));
#333 = DIRECTION('',(0.,1.,0.));
#334 = ORIENTED_EDGE('',*,*,#320,.F.);
#335 = ORIENTED_EDGE('',*,*,#274,.F.);
#336 = CYLINDRICAL_SURFACE('',#337,7.5);
#337 = AXIS2_PLACEMENT_3D('',#338,#339,#340);
#338 = CARTESIAN_POINT('',(0.,0.,0.));
#339 = DIRECTION('',(-1.,-0.,-0.));
#340 = DIRECTION('',(0.,1.,0.));
#341 = ADVANCED_FACE('',(#342),#345,.T.);
#342 = FACE_BOUND('',#343,.T.);
#343 = EDGE_LOOP('',(#344));
#344 = ORIENTED_EDGE('',*,*,#328,.T.);
#345 = PLANE('',#346);
#346 = AXIS2_PLACEMENT_3D('',#347,#348,#349);
#347 = CARTESIAN_POINT('',(19.,-5.469760530158E-16,5.848900222367E-17));
#348 = DIRECTION('',(1.,0.,0.));
#349 = DIRECTION('',(0.,0.,1.));
#350 = ( GEOMETRIC_REPRESENTATION_CONTEXT(3) 
GLOBAL_UNCERTAINTY_ASSIGNED_CONTEXT((#354)) GLOBAL_UNIT_ASSIGNED_CONTEXT
((#351,#352,#353)) REPRESENTATION_CONTEXT('Context #1',
  '3D Context with UNIT and UNCERTAINTY') );
#351 = ( LENGTH_UNIT() NAMED_UNIT(*) SI_UNIT(.MILLI.,.METRE.) );
#352 = ( NAMED_UNIT(*) PLANE_ANGLE_UNIT() SI_UNIT($,.RADIAN.) );
#353 = ( NAMED_UNIT(*) SI_UNIT($,.STERADIAN.) SOLID_ANGLE_UNIT() );
#354 = UNCERTAINTY_MEASURE_WITH_UNIT(LENGTH_MEASURE(1.E-07),#351,
  'distance_accuracy_value','confusion accuracy');
#355 = CONTEXT_DEPENDENT_SHAPE_REPRESENTATION(#356,#358);
#356 = ( REPRESENTATION_RELATIONSHIP('','',#154,#10) 
REPRESENTATION_RELATIONSHIP_WITH_TRANSFORMATION(#357) 
SHAPE_REPRESENTATION_RELATIONSHIP() );
#357 = ITEM_DEFINED_TRANSFORMATION('','',#11,#19);
#358 = PRODUCT_DEFINITION_SHAPE('Placement','Placement of an item',#359
  );
#359 = NEXT_ASSEMBLY_USAGE_OCCURRENCE('2','Body001','',#5,#149,$);
#360 = PRODUCT_RELATED_PRODUCT_CATEGORY('part',$,(#151));
#361 = SHAPE_DEFINITION_REPRESENTATION(#362,#368);
#362 = PRODUCT_DEFINITION_SHAPE('','',#363);
#363 = PRODUCT_DEFINITION('design','',#364,#367);
#364 = PRODUCT_DEFINITION_FORMATION('','',#365);
#365 = PRODUCT('Body002','Body002','',(#366));
#366 = PRODUCT_CONTEXT('',#2,'mechanical');
#367 = PRODUCT_DEFINITION_CONTEXT('part definition',#2,'design');
#368 = ADVANCED_BREP_SHAPE_REPRESENTATION('',(#11,#369),#564);
#369 = MANIFOLD_SOLID_BREP('',#370);
#370 = CLOSED_SHELL('',(#371,#411,#442,#473,#501,#518,#530,#555));
#371 = ADVANCED_FACE('',(#372),#406,.T.);
#372 = FACE_BOUND('',#373,.T.);
#373 = EDGE_LOOP('',(#374,#384,#392,#400));
#374 = ORIENTED_EDGE('',*,*,#375,.T.);
#375 = EDGE_CURVE('',#376,#378,#380,.T.);
#376 = VERTEX_POINT('',#377);
#377 = CARTESIAN_POINT('',(97.,301.99999999996,47.5));
#378 = VERTEX_POINT('',#379);
#379 = CARTESIAN_POINT('',(52.,301.99999999996,47.5));
#380 = LINE('',#381,#382);
#381 = CARTESIAN_POINT('',(97.,301.99999999996,47.5));
#382 = VECTOR('',#383,1.);
#383 = DIRECTION('',(-1.,-0.,-0.));
#384 = ORIENTED_EDGE('',*,*,#385,.T.);
#385 = EDGE_CURVE('',#378,#386,#388,.T.);
#386 = VERTEX_POINT('',#387);
#387 = CARTESIAN_POINT('',(52.,301.99999999996,1.5));
#388 = LINE('',#389,#390);
#389 = CARTESIAN_POINT('',(52.,301.99999999996,47.5));
#390 = VECTOR('',#391,1.);
#391 = DIRECTION('',(0.,0.,-1.));
#392 = ORIENTED_EDGE('',*,*,#393,.F.);
#393 = EDGE_CURVE('',#394,#386,#396,.T.);
#394 = VERTEX_POINT('',#395);
#395 = CARTESIAN_POINT('',(97.,301.99999999996,1.5));
#396 = LINE('',#397,#398);
#397 = CARTESIAN_POINT('',(97.,301.99999999996,1.5));
#398 = VECTOR('',#399,1.);
#399 = DIRECTION('',(-1.,-0.,-0.));
#400 = ORIENTED_EDGE('',*,*,#401,.F.);
#401 = EDGE_CURVE('',#376,#394,#402,.T.);
#402 = LINE('',#403,#404);
#403 = CARTESIAN_POINT('',(97.,301.99999999996,47.5));
#404 = VECTOR('',#405,1.);
#405 = DIRECTION('',(0.,0.,-1.));
#406 = PLANE('',#407);
#407 = AXIS2_PLACEMENT_3D('',#408,#409,#410);
#408 = CARTESIAN_POINT('',(97.,301.99999999996,47.5));
#409 = DIRECTION('',(0.,-1.,0.));
#410 = DIRECTION('',(0.,0.,-1.));
#411 = ADVANCED_FACE('',(#412),#437,.T.);
#412 = FACE_BOUND('',#413,.T.);
#413 = EDGE_LOOP('',(#414,#424,#430,#431));
#414 = ORIENTED_EDGE('',*,*,#415,.T.);
#415 = EDGE_CURVE('',#416,#418,#420,.T.);
#416 = VERTEX_POINT('',#417);
#417 = CARTESIAN_POINT('',(97.,377.99999999996,47.5));
#418 = VERTEX_POINT('',#419);
#419 = CARTESIAN_POINT('',(52.,377.99999999996,47.5));
#420 = LINE('',#421,#422);
#421 = CARTESIAN_POINT('',(97.,377.99999999996,47.5));
#422 = VECTOR('',#423,1.);
#423 = DIRECTION('',(-1.,-0.,-0.));
#424 = ORIENTED_EDGE('',*,*,#425,.T.);
#425 = EDGE_CURVE('',#418,#378,#426,.T.);
#426 = LINE('',#427,#428);
#427 = CARTESIAN_POINT('',(52.,377.99999999996,47.5));
#428 = VECTOR('',#429,1.);
#429 = DIRECTION('',(0.,-1.,0.));
#430 = ORIENTED_EDGE('',*,*,#375,.F.);
#431 = ORIENTED_EDGE('',*,*,#432,.F.);
#432 = EDGE_CURVE('',#416,#376,#433,.T.);
#433 = LINE('',#434,#435);
#434 = CARTESIAN_POINT('',(97.,377.99999999996,47.5));
#435 = VECTOR('',#436,1.);
#436 = DIRECTION('',(0.,-1.,0.));
#437 = PLANE('',#438);
#438 = AXIS2_PLACEMENT_3D('',#439,#440,#441);
#439 = CARTESIAN_POINT('',(97.,377.99999999996,47.5));
#440 = DIRECTION('',(0.,0.,1.));
#441 = DIRECTION('',(0.,-1.,0.));
#442 = ADVANCED_FACE('',(#443),#468,.T.);
#443 = FACE_BOUND('',#444,.T.);
#444 = EDGE_LOOP('',(#445,#446,#454,#462));
#445 = ORIENTED_EDGE('',*,*,#393,.T.);
#446 = ORIENTED_EDGE('',*,*,#447,.T.);
#447 = EDGE_CURVE('',#386,#448,#450,.T.);
#448 = VERTEX_POINT('',#449);
#449 = CARTESIAN_POINT('',(52.,378.00000000003,1.5));
#450 = LINE('',#451,#452);
#451 = CARTESIAN_POINT('',(52.,301.99999999996,1.5));
#452 = VECTOR('',#453,1.);
#453 = DIRECTION('',(0.,1.,0.));
#454 = ORIENTED_EDGE('',*,*,#455,.F.);
#455 = EDGE_CURVE('',#456,#448,#458,.T.);
#456 = VERTEX_POINT('',#457);
#457 = CARTESIAN_POINT('',(97.,378.00000000003,1.5));
#458 = LINE('',#459,#460);
#459 = CARTESIAN_POINT('',(97.,378.00000000003,1.5));
#460 = VECTOR('',#461,1.);
#461 = DIRECTION('',(-1.,-0.,-0.));
#462 = ORIENTED_EDGE('',*,*,#463,.F.);
#463 = EDGE_CURVE('',#394,#456,#464,.T.);
#464 = LINE('',#465,#466);
#465 = CARTESIAN_POINT('',(97.,301.99999999996,1.5));
#466 = VECTOR('',#467,1.);
#467 = DIRECTION('',(0.,1.,0.));
#468 = PLANE('',#469);
#469 = AXIS2_PLACEMENT_3D('',#470,#471,#472);
#470 = CARTESIAN_POINT('',(97.,301.99999999996,1.5));
#471 = DIRECTION('',(0.,0.,-1.));
#472 = DIRECTION('',(0.,1.,0.));
#473 = ADVANCED_FACE('',(#474,#485),#496,.T.);
#474 = FACE_BOUND('',#475,.T.);
#475 = EDGE_LOOP('',(#476,#477,#478,#484));
#476 = ORIENTED_EDGE('',*,*,#401,.T.);
#477 = ORIENTED_EDGE('',*,*,#463,.T.);
#478 = ORIENTED_EDGE('',*,*,#479,.T.);
#479 = EDGE_CURVE('',#456,#416,#480,.T.);
#480 = LINE('',#481,#482);
#481 = CARTESIAN_POINT('',(97.,378.00000000003,1.5));
#482 = VECTOR('',#483,1.);
#483 = DIRECTION('',(0.,-1.353043281281E-12,1.));
#484 = ORIENTED_EDGE('',*,*,#432,.T.);
#485 = FACE_BOUND('',#486,.T.);
#486 = EDGE_LOOP('',(#487));
#487 = ORIENTED_EDGE('',*,*,#488,.F.);
#488 = EDGE_CURVE('',#489,#489,#491,.T.);
#489 = VERTEX_POINT('',#490);
#490 = CARTESIAN_POINT('',(97.,361.,24.5));
#491 = CIRCLE('',#492,7.5);
#492 = AXIS2_PLACEMENT_3D('',#493,#494,#495);
#493 = CARTESIAN_POINT('',(97.,353.5,24.5));
#494 = DIRECTION('',(1.,0.,0.));
#495 = DIRECTION('',(0.,1.,0.));
#496 = PLANE('',#497);
#497 = AXIS2_PLACEMENT_3D('',#498,#499,#500);
#498 = CARTESIAN_POINT('',(97.,339.99999999998,24.499999999995));
#499 = DIRECTION('',(1.,0.,0.));
#500 = DIRECTION('',(0.,0.,1.));
#501 = ADVANCED_FACE('',(#502),#513,.F.);
#502 = FACE_BOUND('',#503,.F.);
#503 = EDGE_LOOP('',(#504,#505,#506,#512));
#504 = ORIENTED_EDGE('',*,*,#385,.T.);
#505 = ORIENTED_EDGE('',*,*,#447,.T.);
#506 = ORIENTED_EDGE('',*,*,#507,.T.);
#507 = EDGE_CURVE('',#448,#418,#508,.T.);
#508 = LINE('',#509,#510);
#509 = CARTESIAN_POINT('',(52.,378.00000000003,1.5));
#510 = VECTOR('',#511,1.);
#511 = DIRECTION('',(0.,-1.353043281281E-12,1.));
#512 = ORIENTED_EDGE('',*,*,#425,.T.);
#513 = PLANE('',#514);
#514 = AXIS2_PLACEMENT_3D('',#515,#516,#517);
#515 = CARTESIAN_POINT('',(52.,339.99999999998,24.499999999995));
#516 = DIRECTION('',(1.,0.,0.));
#517 = DIRECTION('',(0.,0.,1.));
#518 = ADVANCED_FACE('',(#519),#525,.T.);
#519 = FACE_BOUND('',#520,.T.);
#520 = EDGE_LOOP('',(#521,#522,#523,#524));
#521 = ORIENTED_EDGE('',*,*,#455,.T.);
#522 = ORIENTED_EDGE('',*,*,#507,.T.);
#523 = ORIENTED_EDGE('',*,*,#415,.F.);
#524 = ORIENTED_EDGE('',*,*,#479,.F.);
#525 = PLANE('',#526);
#526 = AXIS2_PLACEMENT_3D('',#527,#528,#529);
#527 = CARTESIAN_POINT('',(97.,378.00000000003,1.5));
#528 = DIRECTION('',(0.,1.,1.353043281281E-12));
#529 = DIRECTION('',(0.,-1.353043281281E-12,1.));
#530 = ADVANCED_FACE('',(#531),#550,.T.);
#531 = FACE_BOUND('',#532,.F.);
#532 = EDGE_LOOP('',(#533,#541,#548,#549));
#533 = ORIENTED_EDGE('',*,*,#534,.T.);
#534 = EDGE_CURVE('',#489,#535,#537,.T.);
#535 = VERTEX_POINT('',#536);
#536 = CARTESIAN_POINT('',(116.,361.,24.5));
#537 = LINE('',#538,#539);
#538 = CARTESIAN_POINT('',(97.,361.,24.5));
#539 = VECTOR('',#540,1.);
#540 = DIRECTION('',(1.,0.,0.));
#541 = ORIENTED_EDGE('',*,*,#542,.T.);
#542 = EDGE_CURVE('',#535,#535,#543,.T.);
#543 = CIRCLE('',#544,7.5);
#544 = AXIS2_PLACEMENT_3D('',#545,#546,#547);
#545 = CARTESIAN_POINT('',(116.,353.5,24.5));
#546 = DIRECTION('',(1.,0.,0.));
#547 = DIRECTION('',(0.,1.,0.));
#548 = ORIENTED_EDGE('',*,*,#534,.F.);
#549 = ORIENTED_EDGE('',*,*,#488,.F.);
#550 = CYLINDRICAL_SURFACE('',#551,7.5);
#551 = AXIS2_PLACEMENT_3D('',#552,#553,#554);
#552 = CARTESIAN_POINT('',(97.,353.5,24.5));
#553 = DIRECTION('',(-1.,-0.,-0.));
#554 = DIRECTION('',(0.,1.,0.));
#555 = ADVANCED_FACE('',(#556),#559,.T.);
#556 = FACE_BOUND('',#557,.T.);
#557 = EDGE_LOOP('',(#558));
#558 = ORIENTED_EDGE('',*,*,#542,.T.);
#559 = PLANE('',#560);
#560 = AXIS2_PLACEMENT_3D('',#561,#562,#563);
#561 = CARTESIAN_POINT('',(116.,353.5,24.5));
#562 = DIRECTION('',(1.,0.,0.));
#563 = DIRECTION('',(0.,0.,1.));
#564 = ( GEOMETRIC_REPRESENTATION_CONTEXT(3) 
GLOBAL_UNCERTAINTY_ASSIGNED_CONTEXT((#568)) GLOBAL_UNIT_ASSIGNED_CONTEXT
((#565,#566,#567)) REPRESENTATION_CONTEXT('Context #1',
  '3D Context with UNIT and UNCERTAINTY') );
#565 = ( LENGTH_UNIT() NAMED_UNIT(*) SI_UNIT(.MILLI.,.METRE.) );
#566 = ( NAMED_UNIT(*) PLANE_ANGLE_UNIT() SI_UNIT($,.RADIAN.) );
#567 = ( NAMED_UNIT(*) SI_UNIT($,.STERADIAN.) SOLID_ANGLE_UNIT() );
#568 = UNCERTAINTY_MEASURE_WITH_UNIT(LENGTH_MEASURE(1.E-07),#565,
  'distance_accuracy_value','confusion accuracy');
#569 = CONTEXT_DEPENDENT_SHAPE_REPRESENTATION(#570,#572);
#570 = ( REPRESENTATION_RELATIONSHIP('','',#368,#10) 
REPRESENTATION_RELATIONSHIP_WITH_TRANSFORMATION(#571) 
SHAPE_REPRESENTATION_RELATIONSHIP() );
#571 = ITEM_DEFINED_TRANSFORMATION('','',#11,#23);
#572 = PRODUCT_DEFINITION_SHAPE('Placement','Placement of an item',#573
  );
#573 = NEXT_ASSEMBLY_USAGE_OCCURRENCE('3','Body002','',#5,#363,$);
#574 = PRODUCT_RELATED_PRODUCT_CATEGORY('part',$,(#365));
#575 = SHAPE_DEFINITION_REPRESENTATION(#576,#582);
#576 = PRODUCT_DEFINITION_SHAPE('','',#577);
#577 = PRODUCT_DEFINITION('design','',#578,#581);
#578 = PRODUCT_DEFINITION_FORMATION('','',#579);
#579 = PRODUCT('Body003','Body003','',(#580));
#580 = PRODUCT_CONTEXT('',#2,'mechanical');
#581 = PRODUCT_DEFINITION_CONTEXT('part definition',#2,'design');
#582 = ADVANCED_BREP_SHAPE_REPRESENTATION('',(#11,#583),#778);
#583 = MANIFOLD_SOLID_BREP('',#584);
#584 = CLOSED_SHELL('',(#585,#625,#656,#687,#715,#732,#744,#769));
#585 = ADVANCED_FACE('',(#586),#620,.T.);
#586 = FACE_BOUND('',#587,.T.);
#587 = EDGE_LOOP('',(#588,#598,#606,#614));
#588 = ORIENTED_EDGE('',*,*,#589,.T.);
#589 = EDGE_CURVE('',#590,#592,#594,.T.);
#590 = VERTEX_POINT('',#591);
#591 = CARTESIAN_POINT('',(97.,301.99999999996,47.5));
#592 = VERTEX_POINT('',#593);
#593 = CARTESIAN_POINT('',(52.,301.99999999996,47.5));
#594 = LINE('',#595,#596);
#595 = CARTESIAN_POINT('',(97.,301.99999999996,47.5));
#596 = VECTOR('',#597,1.);
#597 = DIRECTION('',(-1.,-0.,-0.));
#598 = ORIENTED_EDGE('',*,*,#599,.T.);
#599 = EDGE_CURVE('',#592,#600,#602,.T.);
#600 = VERTEX_POINT('',#601);
#601 = CARTESIAN_POINT('',(52.,301.99999999996,1.5));
#602 = LINE('',#603,#604);
#603 = CARTESIAN_POINT('',(52.,301.99999999996,47.5));
#604 = VECTOR('',#605,1.);
#605 = DIRECTION('',(0.,0.,-1.));
#606 = ORIENTED_EDGE('',*,*,#607,.F.);
#607 = EDGE_CURVE('',#608,#600,#610,.T.);
#608 = VERTEX_POINT('',#609);
#609 = CARTESIAN_POINT('',(97.,301.99999999996,1.5));
#610 = LINE('',#611,#612);
#611 = CARTESIAN_POINT('',(97.,301.99999999996,1.5));
#612 = VECTOR('',#613,1.);
#613 = DIRECTION('',(-1.,-0.,-0.));
#614 = ORIENTED_EDGE('',*,*,#615,.F.);
#615 = EDGE_CURVE('',#590,#608,#616,.T.);
#616 = LINE('',#617,#618);
#617 = CARTESIAN_POINT('',(97.,301.99999999996,47.5));
#618 = VECTOR('',#619,1.);
#619 = DIRECTION('',(0.,0.,-1.));
#620 = PLANE('',#621);
#621 = AXIS2_PLACEMENT_3D('',#622,#623,#624);
#622 = CARTESIAN_POINT('',(97.,301.99999999996,47.5));
#623 = DIRECTION('',(0.,-1.,0.));
#624 = DIRECTION('',(0.,0.,-1.));
#625 = ADVANCED_FACE('',(#626),#651,.T.);
#626 = FACE_BOUND('',#627,.T.);
#627 = EDGE_LOOP('',(#628,#638,#644,#645));
#628 = ORIENTED_EDGE('',*,*,#629,.T.);
#629 = EDGE_CURVE('',#630,#632,#634,.T.);
#630 = VERTEX_POINT('',#631);
#631 = CARTESIAN_POINT('',(97.,377.99999999996,47.5));
#632 = VERTEX_POINT('',#633);
#633 = CARTESIAN_POINT('',(52.,377.99999999996,47.5));
#634 = LINE('',#635,#636);
#635 = CARTESIAN_POINT('',(97.,377.99999999996,47.5));
#636 = VECTOR('',#637,1.);
#637 = DIRECTION('',(-1.,-0.,-0.));
#638 = ORIENTED_EDGE('',*,*,#639,.T.);
#639 = EDGE_CURVE('',#632,#592,#640,.T.);
#640 = LINE('',#641,#642);
#641 = CARTESIAN_POINT('',(52.,377.99999999996,47.5));
#642 = VECTOR('',#643,1.);
#643 = DIRECTION('',(0.,-1.,0.));
#644 = ORIENTED_EDGE('',*,*,#589,.F.);
#645 = ORIENTED_EDGE('',*,*,#646,.F.);
#646 = EDGE_CURVE('',#630,#590,#647,.T.);
#647 = LINE('',#648,#649);
#648 = CARTESIAN_POINT('',(97.,377.99999999996,47.5));
#649 = VECTOR('',#650,1.);
#650 = DIRECTION('',(0.,-1.,0.));
#651 = PLANE('',#652);
#652 = AXIS2_PLACEMENT_3D('',#653,#654,#655);
#653 = CARTESIAN_POINT('',(97.,377.99999999996,47.5));
#654 = DIRECTION('',(0.,0.,1.));
#655 = DIRECTION('',(0.,-1.,0.));
#656 = ADVANCED_FACE('',(#657),#682,.T.);
#657 = FACE_BOUND('',#658,.T.);
#658 = EDGE_LOOP('',(#659,#660,#668,#676));
#659 = ORIENTED_EDGE('',*,*,#607,.T.);
#660 = ORIENTED_EDGE('',*,*,#661,.T.);
#661 = EDGE_CURVE('',#600,#662,#664,.T.);
#662 = VERTEX_POINT('',#663);
#663 = CARTESIAN_POINT('',(52.,378.00000000003,1.5));
#664 = LINE('',#665,#666);
#665 = CARTESIAN_POINT('',(52.,301.99999999996,1.5));
#666 = VECTOR('',#667,1.);
#667 = DIRECTION('',(0.,1.,0.));
#668 = ORIENTED_EDGE('',*,*,#669,.F.);
#669 = EDGE_CURVE('',#670,#662,#672,.T.);
#670 = VERTEX_POINT('',#671);
#671 = CARTESIAN_POINT('',(97.,378.00000000003,1.5));
#672 = LINE('',#673,#674);
#673 = CARTESIAN_POINT('',(97.,378.00000000003,1.5));
#674 = VECTOR('',#675,1.);
#675 = DIRECTION('',(-1.,-0.,-0.));
#676 = ORIENTED_EDGE('',*,*,#677,.F.);
#677 = EDGE_CURVE('',#608,#670,#678,.T.);
#678 = LINE('',#679,#680);
#679 = CARTESIAN_POINT('',(97.,301.99999999996,1.5));
#680 = VECTOR('',#681,1.);
#681 = DIRECTION('',(0.,1.,0.));
#682 = PLANE('',#683);
#683 = AXIS2_PLACEMENT_3D('',#684,#685,#686);
#684 = CARTESIAN_POINT('',(97.,301.99999999996,1.5));
#685 = DIRECTION('',(0.,0.,-1.));
#686 = DIRECTION('',(0.,1.,0.));
#687 = ADVANCED_FACE('',(#688,#699),#710,.T.);
#688 = FACE_BOUND('',#689,.T.);
#689 = EDGE_LOOP('',(#690,#691,#692,#698));
#690 = ORIENTED_EDGE('',*,*,#615,.T.);
#691 = ORIENTED_EDGE('',*,*,#677,.T.);
#692 = ORIENTED_EDGE('',*,*,#693,.T.);
#693 = EDGE_CURVE('',#670,#630,#694,.T.);
#694 = LINE('',#695,#696);
#695 = CARTESIAN_POINT('',(97.,378.00000000003,1.5));
#696 = VECTOR('',#697,1.);
#697 = DIRECTION('',(0.,-1.353043281281E-12,1.));
#698 = ORIENTED_EDGE('',*,*,#646,.T.);
#699 = FACE_BOUND('',#700,.T.);
#700 = EDGE_LOOP('',(#701));
#701 = ORIENTED_EDGE('',*,*,#702,.F.);
#702 = EDGE_CURVE('',#703,#703,#705,.T.);
#703 = VERTEX_POINT('',#704);
#704 = CARTESIAN_POINT('',(97.,361.,24.5));
#705 = CIRCLE('',#706,7.5);
#706 = AXIS2_PLACEMENT_3D('',#707,#708,#709);
#707 = CARTESIAN_POINT('',(97.,353.5,24.5));
#708 = DIRECTION('',(1.,0.,0.));
#709 = DIRECTION('',(0.,1.,0.));
#710 = PLANE('',#711);
#711 = AXIS2_PLACEMENT_3D('',#712,#713,#714);
#712 = CARTESIAN_POINT('',(97.,339.99999999998,24.499999999995));
#713 = DIRECTION('',(1.,0.,0.));
#714 = DIRECTION('',(0.,0.,1.));
#715 = ADVANCED_FACE('',(#716),#727,.F.);
#716 = FACE_BOUND('',#717,.F.);
#717 = EDGE_LOOP('',(#718,#719,#720,#726));
#718 = ORIENTED_EDGE('',*,*,#599,.T.);
#719 = ORIENTED_EDGE('',*,*,#661,.T.);
#720 = ORIENTED_EDGE('',*,*,#721,.T.);
#721 = EDGE_CURVE('',#662,#632,#722,.T.);
#722 = LINE('',#723,#724);
#723 = CARTESIAN_POINT('',(52.,378.00000000003,1.5));
#724 = VECTOR('',#725,1.);
#725 = DIRECTION('',(0.,-1.353043281281E-12,1.));
#726 = ORIENTED_EDGE('',*,*,#639,.T.);
#727 = PLANE('',#728);
#728 = AXIS2_PLACEMENT_3D('',#729,#730,#731);
#729 = CARTESIAN_POINT('',(52.,339.99999999998,24.499999999995));
#730 = DIRECTION('',(1.,0.,0.));
#731 = DIRECTION('',(0.,0.,1.));
#732 = ADVANCED_FACE('',(#733),#739,.T.);
#733 = FACE_BOUND('',#734,.T.);
#734 = EDGE_LOOP('',(#735,#736,#737,#738));
#735 = ORIENTED_EDGE('',*,*,#669,.T.);
#736 = ORIENTED_EDGE('',*,*,#721,.T.);
#737 = ORIENTED_EDGE('',*,*,#629,.F.);
#738 = ORIENTED_EDGE('',*,*,#693,.F.);
#739 = PLANE('',#740);
#740 = AXIS2_PLACEMENT_3D('',#741,#742,#743);
#741 = CARTESIAN_POINT('',(97.,378.00000000003,1.5));
#742 = DIRECTION('',(0.,1.,1.353043281281E-12));
#743 = DIRECTION('',(0.,-1.353043281281E-12,1.));
#744 = ADVANCED_FACE('',(#745),#764,.T.);
#745 = FACE_BOUND('',#746,.F.);
#746 = EDGE_LOOP('',(#747,#755,#762,#763));
#747 = ORIENTED_EDGE('',*,*,#748,.T.);
#748 = EDGE_CURVE('',#703,#749,#751,.T.);
#749 = VERTEX_POINT('',#750);
#750 = CARTESIAN_POINT('',(116.,361.,24.5));
#751 = LINE('',#752,#753);
#752 = CARTESIAN_POINT('',(97.,361.,24.5));
#753 = VECTOR('',#754,1.);
#754 = DIRECTION('',(1.,0.,0.));
#755 = ORIENTED_EDGE('',*,*,#756,.T.);
#756 = EDGE_CURVE('',#749,#749,#757,.T.);
#757 = CIRCLE('',#758,7.5);
#758 = AXIS2_PLACEMENT_3D('',#759,#760,#761);
#759 = CARTESIAN_POINT('',(116.,353.5,24.5));
#760 = DIRECTION('',(1.,0.,0.));
#761 = DIRECTION('',(0.,1.,0.));
#762 = ORIENTED_EDGE('',*,*,#748,.F.);
#763 = ORIENTED_EDGE('',*,*,#702,.F.);
#764 = CYLINDRICAL_SURFACE('',#765,7.5);
#765 = AXIS2_PLACEMENT_3D('',#766,#767,#768);
#766 = CARTESIAN_POINT('',(97.,353.5,24.5));
#767 = DIRECTION('',(-1.,-0.,-0.));
#768 = DIRECTION('',(0.,1.,0.));
#769 = ADVANCED_FACE('',(#770),#773,.T.);
#770 = FACE_BOUND('',#771,.T.);
#771 = EDGE_LOOP('',(#772));
#772 = ORIENTED_EDGE('',*,*,#756,.T.);
#773 = PLANE('',#774);
#774 = AXIS2_PLACEMENT_3D('',#775,#776,#777);
#775 = CARTESIAN_POINT('',(116.,353.5,24.5));
#776 = DIRECTION('',(1.,0.,0.));
#777 = DIRECTION('',(0.,0.,1.));
#778 = ( GEOMETRIC_REPRESENTATION_CONTEXT(3) 
GLOBAL_UNCERTAINTY_ASSIGNED_CONTEXT((#782)) GLOBAL_UNIT_ASSIGNED_CONTEXT
((#779,#780,#781)) REPRESENTATION_CONTEXT('Context #1',
  '3D Context with UNIT and UNCERTAINTY') );
#779 = ( LENGTH_UNIT() NAMED_UNIT(*) SI_UNIT(.MILLI.,.METRE.) );
#780 = ( NAMED_UNIT(*) PLANE_ANGLE_UNIT() SI_UNIT($,.RADIAN.) );
#781 = ( NAMED_UNIT(*) SI_UNIT($,.STERADIAN.) SOLID_ANGLE_UNIT() );
#782 = UNCERTAINTY_MEASURE_WITH_UNIT(LENGTH_MEASURE(1.E-07),#779,
  'distance_accuracy_value','confusion accuracy');
#783 = CONTEXT_DEPENDENT_SHAPE_REPRESENTATION(#784,#786);
#784 = ( REPRESENTATION_RELATIONSHIP('','',#582,#10) 
REPRESENTATION_RELATIONSHIP_WITH_TRANSFORMATION(#785) 
SHAPE_REPRESENTATION_RELATIONSHIP() );
#785 = ITEM_DEFINED_TRANSFORMATION('','',#11,#27);
#786 = PRODUCT_DEFINITION_SHAPE('Placement','Placement of an item',#787
  );
#787 = NEXT_ASSEMBLY_USAGE_OCCURRENCE('4','Body003','',#5,#577,$);
#788 = PRODUCT_RELATED_PRODUCT_CATEGORY('part',$,(#579));
#789 = SHAPE_DEFINITION_REPRESENTATION(#790,#796);
#790 = PRODUCT_DEFINITION_SHAPE('','',#791);
#791 = PRODUCT_DEFINITION('design','',#792,#795);
#792 = PRODUCT_DEFINITION_FORMATION('','',#793);
#793 = PRODUCT('Body004','Body004','',(#794));
#794 = PRODUCT_CONTEXT('',#2,'mechanical');
#795 = PRODUCT_DEFINITION_CONTEXT('part definition',#2,'design');
#796 = ADVANCED_BREP_SHAPE_REPRESENTATION('',(#11,#797),#992);
#797 = MANIFOLD_SOLID_BREP('',#798);
#798 = CLOSED_SHELL('',(#799,#839,#870,#901,#929,#946,#958,#983));
#799 = ADVANCED_FACE('',(#800),#834,.T.);
#800 = FACE_BOUND('',#801,.T.);
#801 = EDGE_LOOP('',(#802,#812,#820,#828));
#802 = ORIENTED_EDGE('',*,*,#803,.T.);
#803 = EDGE_CURVE('',#804,#806,#808,.T.);
#804 = VERTEX_POINT('',#805);
#805 = CARTESIAN_POINT('',(-98.,301.99999999996,1.499999999999));
#806 = VERTEX_POINT('',#807);
#807 = CARTESIAN_POINT('',(-53.,301.99999999996,1.5));
#808 = LINE('',#809,#810);
#809 = CARTESIAN_POINT('',(-98.,301.99999999996,1.499999999999));
#810 = VECTOR('',#811,1.);
#811 = DIRECTION('',(1.,0.,3.587607780783E-16));
#812 = ORIENTED_EDGE('',*,*,#813,.T.);
#813 = EDGE_CURVE('',#806,#814,#816,.T.);
#814 = VERTEX_POINT('',#815);
#815 = CARTESIAN_POINT('',(-53.,301.99999999996,47.5));
#816 = LINE('',#817,#818);
#817 = CARTESIAN_POINT('',(-53.,301.99999999996,1.5));
#818 = VECTOR('',#819,1.);
#819 = DIRECTION('',(-3.587607780783E-16,0.,1.));
#820 = ORIENTED_EDGE('',*,*,#821,.F.);
#821 = EDGE_CURVE('',#822,#814,#824,.T.);
#822 = VERTEX_POINT('',#823);
#823 = CARTESIAN_POINT('',(-98.,301.99999999996,47.499999999999));
#824 = LINE('',#825,#826);
#825 = CARTESIAN_POINT('',(-98.,301.99999999996,47.499999999999));
#826 = VECTOR('',#827,1.);
#827 = DIRECTION('',(1.,0.,3.587607780783E-16));
#828 = ORIENTED_EDGE('',*,*,#829,.F.);
#829 = EDGE_CURVE('',#804,#822,#830,.T.);
#830 = LINE('',#831,#832);
#831 = CARTESIAN_POINT('',(-98.,301.99999999996,1.499999999999));
#832 = VECTOR('',#833,1.);
#833 = DIRECTION('',(-3.587607780783E-16,0.,1.));
#834 = PLANE('',#835);
#835 = AXIS2_PLACEMENT_3D('',#836,#837,#838);
#836 = CARTESIAN_POINT('',(-98.,301.99999999996,1.499999999999));
#837 = DIRECTION('',(0.,-1.,0.));
#838 = DIRECTION('',(-3.587607780783E-16,0.,1.));
#839 = ADVANCED_FACE('',(#840),#865,.T.);
#840 = FACE_BOUND('',#841,.T.);
#841 = EDGE_LOOP('',(#842,#852,#858,#859));
#842 = ORIENTED_EDGE('',*,*,#843,.T.);
#843 = EDGE_CURVE('',#844,#846,#848,.T.);
#844 = VERTEX_POINT('',#845);
#845 = CARTESIAN_POINT('',(-98.,377.99999999996,1.499999999999));
#846 = VERTEX_POINT('',#847);
#847 = CARTESIAN_POINT('',(-53.,377.99999999996,1.5));
#848 = LINE('',#849,#850);
#849 = CARTESIAN_POINT('',(-98.,377.99999999996,1.499999999999));
#850 = VECTOR('',#851,1.);
#851 = DIRECTION('',(1.,0.,3.587607780783E-16));
#852 = ORIENTED_EDGE('',*,*,#853,.T.);
#853 = EDGE_CURVE('',#846,#806,#854,.T.);
#854 = LINE('',#855,#856);
#855 = CARTESIAN_POINT('',(-53.,377.99999999996,1.5));
#856 = VECTOR('',#857,1.);
#857 = DIRECTION('',(0.,-1.,0.));
#858 = ORIENTED_EDGE('',*,*,#803,.F.);
#859 = ORIENTED_EDGE('',*,*,#860,.F.);
#860 = EDGE_CURVE('',#844,#804,#861,.T.);
#861 = LINE('',#862,#863);
#862 = CARTESIAN_POINT('',(-98.,377.99999999996,1.499999999999));
#863 = VECTOR('',#864,1.);
#864 = DIRECTION('',(0.,-1.,0.));
#865 = PLANE('',#866);
#866 = AXIS2_PLACEMENT_3D('',#867,#868,#869);
#867 = CARTESIAN_POINT('',(-98.,377.99999999996,1.499999999999));
#868 = DIRECTION('',(3.587607780783E-16,0.,-1.));
#869 = DIRECTION('',(0.,-1.,0.));
#870 = ADVANCED_FACE('',(#871),#896,.T.);
#871 = FACE_BOUND('',#872,.T.);
#872 = EDGE_LOOP('',(#873,#874,#882,#890));
#873 = ORIENTED_EDGE('',*,*,#821,.T.);
#874 = ORIENTED_EDGE('',*,*,#875,.T.);
#875 = EDGE_CURVE('',#814,#876,#878,.T.);
#876 = VERTEX_POINT('',#877);
#877 = CARTESIAN_POINT('',(-53.,378.00000000003,47.5));
#878 = LINE('',#879,#880);
#879 = CARTESIAN_POINT('',(-53.,301.99999999996,47.5));
#880 = VECTOR('',#881,1.);
#881 = DIRECTION('',(0.,1.,0.));
#882 = ORIENTED_EDGE('',*,*,#883,.F.);
#883 = EDGE_CURVE('',#884,#876,#886,.T.);
#884 = VERTEX_POINT('',#885);
#885 = CARTESIAN_POINT('',(-98.,378.00000000003,47.499999999999));
#886 = LINE('',#887,#888);
#887 = CARTESIAN_POINT('',(-98.,378.00000000003,47.499999999999));
#888 = VECTOR('',#889,1.);
#889 = DIRECTION('',(1.,0.,3.587607780783E-16));
#890 = ORIENTED_EDGE('',*,*,#891,.F.);
#891 = EDGE_CURVE('',#822,#884,#892,.T.);
#892 = LINE('',#893,#894);
#893 = CARTESIAN_POINT('',(-98.,301.99999999996,47.499999999999));
#894 = VECTOR('',#895,1.);
#895 = DIRECTION('',(0.,1.,0.));
#896 = PLANE('',#897);
#897 = AXIS2_PLACEMENT_3D('',#898,#899,#900);
#898 = CARTESIAN_POINT('',(-98.,301.99999999996,47.499999999999));
#899 = DIRECTION('',(-3.587607780783E-16,0.,1.));
#900 = DIRECTION('',(0.,1.,0.));
#901 = ADVANCED_FACE('',(#902,#913),#924,.T.);
#902 = FACE_BOUND('',#903,.T.);
#903 = EDGE_LOOP('',(#904,#905,#906,#912));
#904 = ORIENTED_EDGE('',*,*,#829,.T.);
#905 = ORIENTED_EDGE('',*,*,#891,.T.);
#906 = ORIENTED_EDGE('',*,*,#907,.T.);
#907 = EDGE_CURVE('',#884,#844,#908,.T.);
#908 = LINE('',#909,#910);
#909 = CARTESIAN_POINT('',(-98.,378.00000000003,47.499999999999));
#910 = VECTOR('',#911,1.);
#911 = DIRECTION('',(3.587607780783E-16,-1.353043281281E-12,-1.));
#912 = ORIENTED_EDGE('',*,*,#860,.T.);
#913 = FACE_BOUND('',#914,.T.);
#914 = EDGE_LOOP('',(#915));
#915 = ORIENTED_EDGE('',*,*,#916,.F.);
#916 = EDGE_CURVE('',#917,#917,#919,.T.);
#917 = VERTEX_POINT('',#918);
#918 = CARTESIAN_POINT('',(-98.,361.,24.5));
#919 = CIRCLE('',#920,7.5);
#920 = AXIS2_PLACEMENT_3D('',#921,#922,#923);
#921 = CARTESIAN_POINT('',(-98.,353.5,24.5));
#922 = DIRECTION('',(-1.,0.,-3.587607780783E-16));
#923 = DIRECTION('',(0.,1.,0.));
#924 = PLANE('',#925);
#925 = AXIS2_PLACEMENT_3D('',#926,#927,#928);
#926 = CARTESIAN_POINT('',(-98.,339.99999999998,24.500000000005));
#927 = DIRECTION('',(-1.,0.,-3.587607780783E-16));
#928 = DIRECTION('',(3.587607780783E-16,0.,-1.));
#929 = ADVANCED_FACE('',(#930),#941,.F.);
#930 = FACE_BOUND('',#931,.F.);
#931 = EDGE_LOOP('',(#932,#933,#934,#940));
#932 = ORIENTED_EDGE('',*,*,#813,.T.);
#933 = ORIENTED_EDGE('',*,*,#875,.T.);
#934 = ORIENTED_EDGE('',*,*,#935,.T.);
#935 = EDGE_CURVE('',#876,#846,#936,.T.);
#936 = LINE('',#937,#938);
#937 = CARTESIAN_POINT('',(-53.,378.00000000003,47.5));
#938 = VECTOR('',#939,1.);
#939 = DIRECTION('',(3.587607780783E-16,-1.353043281281E-12,-1.));
#940 = ORIENTED_EDGE('',*,*,#853,.T.);
#941 = PLANE('',#942);
#942 = AXIS2_PLACEMENT_3D('',#943,#944,#945);
#943 = CARTESIAN_POINT('',(-53.,339.99999999998,24.500000000005));
#944 = DIRECTION('',(-1.,0.,-3.587607780783E-16));
#945 = DIRECTION('',(3.587607780783E-16,0.,-1.));
#946 = ADVANCED_FACE('',(#947),#953,.T.);
#947 = FACE_BOUND('',#948,.T.);
#948 = EDGE_LOOP('',(#949,#950,#951,#952));
#949 = ORIENTED_EDGE('',*,*,#883,.T.);
#950 = ORIENTED_EDGE('',*,*,#935,.T.);
#951 = ORIENTED_EDGE('',*,*,#843,.F.);
#952 = ORIENTED_EDGE('',*,*,#907,.F.);
#953 = PLANE('',#954);
#954 = AXIS2_PLACEMENT_3D('',#955,#956,#957);
#955 = CARTESIAN_POINT('',(-98.,378.00000000003,47.499999999999));
#956 = DIRECTION('',(4.854188603658E-28,1.,-1.353043281281E-12));
#957 = DIRECTION('',(3.587607780783E-16,-1.353043281281E-12,-1.));
#958 = ADVANCED_FACE('',(#959),#978,.T.);
#959 = FACE_BOUND('',#960,.F.);
#960 = EDGE_LOOP('',(#961,#969,#976,#977));
#961 = ORIENTED_EDGE('',*,*,#962,.T.);
#962 = EDGE_CURVE('',#917,#963,#965,.T.);
#963 = VERTEX_POINT('',#964);
#964 = CARTESIAN_POINT('',(-117.,361.,24.5));
#965 = LINE('',#966,#967);
#966 = CARTESIAN_POINT('',(-98.,361.,24.5));
#967 = VECTOR('',#968,1.);
#968 = DIRECTION('',(-1.,0.,-3.587607780783E-16));
#969 = ORIENTED_EDGE('',*,*,#970,.T.);
#970 = EDGE_CURVE('',#963,#963,#971,.T.);
#971 = CIRCLE('',#972,7.5);
#972 = AXIS2_PLACEMENT_3D('',#973,#974,#975);
#973 = CARTESIAN_POINT('',(-117.,353.5,24.5));
#974 = DIRECTION('',(-1.,0.,-3.587607780783E-16));
#975 = DIRECTION('',(0.,1.,0.));
#976 = ORIENTED_EDGE('',*,*,#962,.F.);
#977 = ORIENTED_EDGE('',*,*,#916,.F.);
#978 = CYLINDRICAL_SURFACE('',#979,7.5);
#979 = AXIS2_PLACEMENT_3D('',#980,#981,#982);
#980 = CARTESIAN_POINT('',(-98.,353.5,24.5));
#981 = DIRECTION('',(1.,-0.,3.587607780783E-16));
#982 = DIRECTION('',(0.,1.,0.));
#983 = ADVANCED_FACE('',(#984),#987,.T.);
#984 = FACE_BOUND('',#985,.T.);
#985 = EDGE_LOOP('',(#986));
#986 = ORIENTED_EDGE('',*,*,#970,.T.);
#987 = PLANE('',#988);
#988 = AXIS2_PLACEMENT_3D('',#989,#990,#991);
#989 = CARTESIAN_POINT('',(-117.,353.5,24.5));
#990 = DIRECTION('',(-1.,0.,-3.587607780783E-16));
#991 = DIRECTION('',(3.587607780783E-16,0.,-1.));
#992 = ( GEOMETRIC_REPRESENTATION_CONTEXT(3) 
GLOBAL_UNCERTAINTY_ASSIGNED_CONTEXT((#996)) GLOBAL_UNIT_ASSIGNED_CONTEXT
((#993,#994,#995)) REPRESENTATION_CONTEXT('Context #1',
  '3D Context with UNIT and UNCERTAINTY') );
#993 = ( LENGTH_UNIT() NAMED_UNIT(*) SI_UNIT(.MILLI.,.METRE.) );
#994 = ( NAMED_UNIT(*) PLANE_ANGLE_UNIT() SI_UNIT($,.RADIAN.) );
#995 = ( NAMED_UNIT(*) SI_UNIT($,.STERADIAN.) SOLID_ANGLE_UNIT() );
#996 = UNCERTAINTY_MEASURE_WITH_UNIT(LENGTH_MEASURE(1.E-07),#993,
  'distance_accuracy_value','confusion accuracy');
#997 = CONTEXT_DEPENDENT_SHAPE_REPRESENTATION(#998,#1000);
#998 = ( REPRESENTATION_RELATIONSHIP('','',#796,#10) 
REPRESENTATION_RELATIONSHIP_WITH_TRANSFORMATION(#999) 
SHAPE_REPRESENTATION_RELATIONSHIP() );
#999 = ITEM_DEFINED_TRANSFORMATION('','',#11,#31);
#1000 = PRODUCT_DEFINITION_SHAPE('Placement','Placement of an item',
  #1001);
#1001 = NEXT_ASSEMBLY_USAGE_OCCURRENCE('5','Body004','',#5,#791,$);
#1002 = PRODUCT_RELATED_PRODUCT_CATEGORY('part',$,(#793));
#1003 = MECHANICAL_DESIGN_GEOMETRIC_PRESENTATION_REPRESENTATION('',(
    #1004),#992);
#1004 = STYLED_ITEM('color',(#1005),#797);
#1005 = PRESENTATION_STYLE_ASSIGNMENT((#1006,#1012));
#1006 = SURFACE_STYLE_USAGE(.BOTH.,#1007);
#1007 = SURFACE_SIDE_STYLE('',(#1008));
#1008 = SURFACE_STYLE_FILL_AREA(#1009);
#1009 = FILL_AREA_STYLE('',(#1010));
#1010 = FILL_AREA_STYLE_COLOUR('',#1011);
#1011 = COLOUR_RGB('',0.447058818107,0.474509808674,0.501960817233);
#1012 = CURVE_STYLE('',#1013,POSITIVE_LENGTH_MEASURE(0.1),#1014);
#1013 = DRAUGHTING_PRE_DEFINED_CURVE_FONT('continuous');
#1014 = COLOUR_RGB('',9.803921802644E-02,9.803921802644E-02,
  9.803921802644E-02);
#1015 = MECHANICAL_DESIGN_GEOMETRIC_PRESENTATION_REPRESENTATION('',(
    #1016),#778);
#1016 = STYLED_ITEM('color',(#1017),#583);
#1017 = PRESENTATION_STYLE_ASSIGNMENT((#1018,#1023));
#1018 = SURFACE_STYLE_USAGE(.BOTH.,#1019);
#1019 = SURFACE_SIDE_STYLE('',(#1020));
#1020 = SURFACE_STYLE_FILL_AREA(#1021);
#1021 = FILL_AREA_STYLE('',(#1022));
#1022 = FILL_AREA_STYLE_COLOUR('',#1011);
#1023 = CURVE_STYLE('',#1024,POSITIVE_LENGTH_MEASURE(0.1),#1014);
#1024 = DRAUGHTING_PRE_DEFINED_CURVE_FONT('continuous');
#1025 = MECHANICAL_DESIGN_GEOMETRIC_PRESENTATION_REPRESENTATION('',(
    #1026),#350);
#1026 = STYLED_ITEM('color',(#1027),#155);
#1027 = PRESENTATION_STYLE_ASSIGNMENT((#1028,#1033));
#1028 = SURFACE_STYLE_USAGE(.BOTH.,#1029);
#1029 = SURFACE_SIDE_STYLE('',(#1030));
#1030 = SURFACE_STYLE_FILL_AREA(#1031);
#1031 = FILL_AREA_STYLE('',(#1032));
#1032 = FILL_AREA_STYLE_COLOUR('',#1011);
#1033 = CURVE_STYLE('',#1034,POSITIVE_LENGTH_MEASURE(0.1),#1014);
#1034 = DRAUGHTING_PRE_DEFINED_CURVE_FONT('continuous');
#1035 = MECHANICAL_DESIGN_GEOMETRIC_PRESENTATION_REPRESENTATION('',(
    #1036),#564);
#1036 = STYLED_ITEM('color',(#1037),#369);
#1037 = PRESENTATION_STYLE_ASSIGNMENT((#1038,#1043));
#1038 = SURFACE_STYLE_USAGE(.BOTH.,#1039);
#1039 = SURFACE_SIDE_STYLE('',(#1040));
#1040 = SURFACE_STYLE_FILL_AREA(#1041);
#1041 = FILL_AREA_STYLE('',(#1042));
#1042 = FILL_AREA_STYLE_COLOUR('',#1011);
#1043 = CURVE_STYLE('',#1044,POSITIVE_LENGTH_MEASURE(0.1),#1014);
#1044 = DRAUGHTING_PRE_DEFINED_CURVE_FONT('continuous');
#1045 = MECHANICAL_DESIGN_GEOMETRIC_PRESENTATION_REPRESENTATION('',(
    #1046),#136);
#1046 = STYLED_ITEM('color',(#1047),#49);
#1047 = PRESENTATION_STYLE_ASSIGNMENT((#1048,#1053));
#1048 = SURFACE_STYLE_USAGE(.BOTH.,#1049);
#1049 = SURFACE_SIDE_STYLE('',(#1050));
#1050 = SURFACE_STYLE_FILL_AREA(#1051);
#1051 = FILL_AREA_STYLE('',(#1052));
#1052 = FILL_AREA_STYLE_COLOUR('',#1011);
#1053 = CURVE_STYLE('',#1054,POSITIVE_LENGTH_MEASURE(0.1),#1014);
#1054 = DRAUGHTING_PRE_DEFINED_CURVE_FONT('continuous');
ENDSEC;
END-ISO-10303-21;
